<svg xmlns="http://www.w3.org/2000/svg" version="1.1" xmlns:xlink="http://www.w3.org/1999/xlink" xmlns:svgjs="http://svgjs.com/svgjs" width="75" height="75" x="0" y="0" viewBox="0 0 24 24" style="enable-background:new 0 0 512 512" xml:space="preserve" className=""><g><g fill="#000"><path d="M12.5 7.05a.5.5 0 0 0-1 0v4.45H7.05a.5.5 0 0 0 0 1h4.45v4.45a.5.5 0 1 0 1 0V12.5h4.45a.5.5 0 1 0 0-1H12.5z" fill="#ababab" data-original="#000000" className=""></path><path fill-rule="evenodd" d="M2 7a5 5 0 0 1 5-5h10a5 5 0 0 1 5 5v10a5 5 0 0 1-5 5H7a5 5 0 0 1-5-5zm5-4h10a4 4 0 0 1 4 4v10a4 4 0 0 1-4 4H7a4 4 0 0 1-4-4V7a4 4 0 0 1 4-4z" clip-rule="evenodd" fill="#ababab" data-original="#000000" className=""></path></g></g></svg>