<?xml version="1.0" standalone="no"?><svg xmlns="http://www.w3.org/2000/svg" viewBox="0 0 1440 320"><path fill="#ffd700" fill-opacity="1" d="M0,256L13.3,229.3C26.7,203,53,149,80,128C106.7,107,133,117,160,133.3C186.7,149,213,171,240,160C266.7,149,293,107,320,80C346.7,53,373,43,400,42.7C426.7,43,453,53,480,58.7C506.7,64,533,64,560,69.3C586.7,75,613,85,640,96C666.7,107,693,117,720,112C746.7,107,773,85,800,74.7C826.7,64,853,64,880,74.7C906.7,85,933,107,960,149.3C986.7,192,1013,256,1040,261.3C1066.7,267,1093,213,1120,170.7C1146.7,128,1173,96,1200,80C1226.7,64,1253,64,1280,64C1306.7,64,1333,64,1360,90.7C1386.7,117,1413,171,1427,197.3L1440,224L1440,0L1426.7,0C1413.3,0,1387,0,1360,0C1333.3,0,1307,0,1280,0C1253.3,0,1227,0,1200,0C1173.3,0,1147,0,1120,0C1093.3,0,1067,0,1040,0C1013.3,0,987,0,960,0C933.3,0,907,0,880,0C853.3,0,827,0,800,0C773.3,0,747,0,720,0C693.3,0,667,0,640,0C613.3,0,587,0,560,0C533.3,0,507,0,480,0C453.3,0,427,0,400,0C373.3,0,347,0,320,0C293.3,0,267,0,240,0C213.3,0,187,0,160,0C133.3,0,107,0,80,0C53.3,0,27,0,13,0L0,0Z"></path></svg>