<?xml version="1.0" standalone="no"?><svg xmlns="http://www.w3.org/2000/svg" viewBox="0 0 1440 320"><path fill="#ffd700" fill-opacity="1" d="M0,192L11.4,197.3C22.9,203,46,213,69,197.3C91.4,181,114,139,137,106.7C160,75,183,53,206,37.3C228.6,21,251,11,274,5.3C297.1,0,320,0,343,26.7C365.7,53,389,107,411,117.3C434.3,128,457,96,480,117.3C502.9,139,526,213,549,234.7C571.4,256,594,224,617,224C640,224,663,256,686,224C708.6,192,731,96,754,58.7C777.1,21,800,43,823,74.7C845.7,107,869,149,891,149.3C914.3,149,937,107,960,117.3C982.9,128,1006,192,1029,213.3C1051.4,235,1074,213,1097,197.3C1120,181,1143,171,1166,144C1188.6,117,1211,75,1234,101.3C1257.1,128,1280,224,1303,240C1325.7,256,1349,192,1371,144C1394.3,96,1417,64,1429,48L1440,32L1440,0L1428.6,0C1417.1,0,1394,0,1371,0C1348.6,0,1326,0,1303,0C1280,0,1257,0,1234,0C1211.4,0,1189,0,1166,0C1142.9,0,1120,0,1097,0C1074.3,0,1051,0,1029,0C1005.7,0,983,0,960,0C937.1,0,914,0,891,0C868.6,0,846,0,823,0C800,0,777,0,754,0C731.4,0,709,0,686,0C662.9,0,640,0,617,0C594.3,0,571,0,549,0C525.7,0,503,0,480,0C457.1,0,434,0,411,0C388.6,0,366,0,343,0C320,0,297,0,274,0C251.4,0,229,0,206,0C182.9,0,160,0,137,0C114.3,0,91,0,69,0C45.7,0,23,0,11,0L0,0Z"></path></svg>